<svg xmlns="http://www.w3.org/2000/svg" viewBox="0 0 512 512" width="512" height="512">
  <defs>
    <linearGradient id="bg" x1="0" y1="0" x2="1" y2="1">
      <stop offset="0%" stop-color="#170825"/>
      <stop offset="100%" stop-color="#2d1454"/>
    </linearGradient>
  </defs>
  <rect width="512" height="512" rx="100" ry="100" fill="url(#bg)"/>
  <g transform="translate(256 256) scale(7) translate(-30 -30)">
    <path d="M30 8 C 22 4 12 8 8 16 C 4 18 4 24 8 26 C 4 30 4 38 10 42 C 12 48 20 52 28 48 L 30 48 L 30 8 Z" fill="#ec4899"/>
    <g stroke="#9d174d" stroke-width="1.6" fill="none" stroke-linecap="round" opacity="0.85">
      <path d="M14 16 C 18 18 16 22 14 24"/>
      <path d="M10 24 C 14 26 12 30 10 32"/>
      <path d="M14 32 C 18 34 16 38 14 40"/>
      <path d="M20 14 C 24 18 22 22 20 26"/>
      <path d="M22 28 C 26 30 24 36 22 40"/>
      <path d="M16 42 C 20 44 22 46 24 44"/>
    </g>
    <path d="M30 8 C 38 4 48 8 52 16 C 56 18 56 24 52 26 C 56 30 56 38 50 42 C 48 48 40 52 32 48 L 30 48 L 30 8 Z" fill="#7c3aed"/>
    <g stroke="#4c1d95" stroke-width="1.6" fill="none" stroke-linecap="round" opacity="0.85">
      <path d="M46 16 C 42 18 44 22 46 24"/>
      <path d="M50 24 C 46 26 48 30 50 32"/>
      <path d="M46 32 C 42 34 44 38 46 40"/>
      <path d="M40 14 C 36 18 38 22 40 26"/>
      <path d="M38 28 C 34 30 36 36 38 40"/>
      <path d="M44 42 C 40 44 38 46 36 44"/>
    </g>
    <line x1="30" y1="10" x2="30" y2="48" stroke="#fbbf24" stroke-width="1.2" opacity="0.7"/>
  </g>
</svg>
